<?xml version="1.0" encoding="UTF-8" standalone="no"?>
<!DOCTYPE svg PUBLIC "-//W3C//DTD SVG 1.1//EN"
 "http://www.w3.org/Graphics/SVG/1.1/DTD/svg11.dtd">
<!-- Generated by graphviz version 2.42.4 (0)
 -->
<!-- Pages: 1 -->
<svg width="749pt" height="764pt"
 viewBox="0.00 0.00 749.09 764.00" xmlns="http://www.w3.org/2000/svg" xmlns:xlink="http://www.w3.org/1999/xlink">
<g id="graph0" class="graph" transform="scale(1 1) rotate(0) translate(4 760)">
<polygon fill="white" stroke="transparent" points="-4,4 -4,-760 745.09,-760 745.09,4 -4,4"/>
<!-- AbstractionHeuristic -->
<g id="node1" class="node">
<title>AbstractionHeuristic</title>
<g id="a_node1"><a xlink:href="AbstractionHeuristic.html" xlink:title="AbstractionHeuristic✓">
<ellipse fill="none" stroke="green" cx="334.35" cy="-162" rx="92.88" ry="18"/>
<text text-anchor="middle" x="334.35" y="-158.3" font-family="Times,serif" font-size="14.00">AbstractionHeuristic✓</text>
</a>
</g>
</g>
<!-- AStar -->
<g id="node2" class="node">
<title>AStar</title>
<g id="a_node2"><a xlink:href="AStar.html" xlink:title="AStar✓">
<ellipse fill="none" stroke="green" cx="235.35" cy="-234" rx="40.09" ry="18"/>
<text text-anchor="middle" x="235.35" y="-230.3" font-family="Times,serif" font-size="14.00">AStar✓</text>
</a>
</g>
</g>
<!-- AStar&#45;&gt;AbstractionHeuristic -->
<g id="edge2" class="edge">
<title>AStar&#45;&gt;AbstractionHeuristic</title>
<path fill="none" stroke="black" d="M255.86,-218.5C269.43,-208.9 287.49,-196.13 302.87,-185.26"/>
<polygon fill="black" stroke="black" points="304.94,-188.08 311.08,-179.45 300.9,-182.36 304.94,-188.08"/>
</g>
<!-- Planner -->
<g id="node17" class="node">
<title>Planner</title>
<g id="a_node17"><a xlink:href="Planner.html" xlink:title="Planner✓">
<ellipse fill="none" stroke="green" cx="176.35" cy="-162" rx="46.59" ry="18"/>
<text text-anchor="middle" x="176.35" y="-158.3" font-family="Times,serif" font-size="14.00">Planner✓</text>
</a>
</g>
</g>
<!-- AStar&#45;&gt;Planner -->
<g id="edge21" class="edge">
<title>AStar&#45;&gt;Planner</title>
<path fill="none" stroke="black" d="M221.66,-216.76C214.32,-208.06 205.13,-197.15 196.94,-187.43"/>
<polygon fill="black" stroke="black" points="199.49,-185.02 190.37,-179.63 194.13,-189.54 199.49,-185.02"/>
</g>
<!-- Basic -->
<g id="node3" class="node">
<title>Basic</title>
<g id="a_node3"><a xlink:href="Basic.html" xlink:title="Basic✓">
<ellipse fill="none" stroke="green" cx="279.35" cy="-594" rx="39.79" ry="18"/>
<text text-anchor="middle" x="279.35" y="-590.3" font-family="Times,serif" font-size="14.00">Basic✓</text>
</a>
</g>
</g>
<!-- NatGraph -->
<g id="node15" class="node">
<title>NatGraph</title>
<g id="a_node15"><a xlink:href="NatGraph.html" xlink:title="NatGraph✓">
<ellipse fill="none" stroke="green" cx="369.35" cy="-378" rx="54.69" ry="18"/>
<text text-anchor="middle" x="369.35" y="-374.3" font-family="Times,serif" font-size="14.00">NatGraph✓</text>
</a>
</g>
</g>
<!-- Basic&#45;&gt;NatGraph -->
<g id="edge18" class="edge">
<title>Basic&#45;&gt;NatGraph</title>
<path fill="none" stroke="black" d="M310.84,-583.03C330.85,-574.89 355.19,-561.2 367.35,-540 391.18,-498.42 383.99,-440.33 376.64,-406.48"/>
<polygon fill="black" stroke="black" points="379.97,-405.34 374.28,-396.4 373.15,-406.93 379.97,-405.34"/>
</g>
<!-- SearchState -->
<g id="node20" class="node">
<title>SearchState</title>
<g id="a_node20"><a xlink:href="SearchState.html" xlink:title="SearchState✓">
<ellipse fill="none" stroke="green" cx="172.35" cy="-522" rx="61.99" ry="18"/>
<text text-anchor="middle" x="172.35" y="-518.3" font-family="Times,serif" font-size="14.00">SearchState✓</text>
</a>
</g>
</g>
<!-- Basic&#45;&gt;SearchState -->
<g id="edge26" class="edge">
<title>Basic&#45;&gt;SearchState</title>
<path fill="none" stroke="black" d="M257.69,-578.83C242.51,-568.9 221.94,-555.45 204.8,-544.23"/>
<polygon fill="black" stroke="black" points="206.49,-541.15 196.2,-538.61 202.65,-547.01 206.49,-541.15"/>
</g>
<!-- BFS -->
<g id="node4" class="node">
<title>BFS</title>
<g id="a_node4"><a xlink:href="BFS.html" xlink:title="BFS✓">
<ellipse fill="none" stroke="green" cx="107.35" cy="-306" rx="36" ry="18"/>
<text text-anchor="middle" x="107.35" y="-302.3" font-family="Times,serif" font-size="14.00">BFS✓</text>
</a>
</g>
</g>
<!-- CostPartitioning -->
<g id="node5" class="node">
<title>CostPartitioning</title>
<g id="a_node5"><a xlink:href="CostPartitioning.html" xlink:title="CostPartitioning✓">
<ellipse fill="none" stroke="green" cx="522.35" cy="-162" rx="77.19" ry="18"/>
<text text-anchor="middle" x="522.35" y="-158.3" font-family="Times,serif" font-size="14.00">CostPartitioning✓</text>
</a>
</g>
</g>
<!-- CriticalPath -->
<g id="node6" class="node">
<title>CriticalPath</title>
<g id="a_node6"><a xlink:href="CriticalPath.html" xlink:title="CriticalPath✓">
<ellipse fill="none" stroke="green" cx="679.35" cy="-162" rx="61.99" ry="18"/>
<text text-anchor="middle" x="679.35" y="-158.3" font-family="Times,serif" font-size="14.00">CriticalPath✓</text>
</a>
</g>
</g>
<!-- H1 -->
<g id="node11" class="node">
<title>H1</title>
<g id="a_node11"><a xlink:href="H1.html" xlink:title="H1✓">
<ellipse fill="none" stroke="green" cx="353.35" cy="-18" rx="30.59" ry="18"/>
<text text-anchor="middle" x="353.35" y="-14.3" font-family="Times,serif" font-size="14.00">H1✓</text>
</a>
</g>
</g>
<!-- CriticalPath&#45;&gt;H1 -->
<g id="edge11" class="edge">
<title>CriticalPath&#45;&gt;H1</title>
<path fill="none" stroke="black" d="M646.6,-146.73C584.37,-119.63 449.68,-60.96 386.86,-33.6"/>
<polygon fill="black" stroke="black" points="387.99,-30.27 377.42,-29.49 385.19,-36.69 387.99,-30.27"/>
</g>
<!-- DeleteRelaxation -->
<g id="node7" class="node">
<title>DeleteRelaxation</title>
<g id="a_node7"><a xlink:href="DeleteRelaxation.html" xlink:title="DeleteRelaxation✓">
<ellipse fill="none" stroke="green" cx="176.35" cy="-90" rx="81.49" ry="18"/>
<text text-anchor="middle" x="176.35" y="-86.3" font-family="Times,serif" font-size="14.00">DeleteRelaxation✓</text>
</a>
</g>
</g>
<!-- DFS2 -->
<g id="node8" class="node">
<title>DFS2</title>
<g id="a_node8"><a xlink:href="DFS2.html" xlink:title="DFS2✓">
<ellipse fill="none" stroke="green" cx="201.35" cy="-306" rx="40.09" ry="18"/>
<text text-anchor="middle" x="201.35" y="-302.3" font-family="Times,serif" font-size="14.00">DFS2✓</text>
</a>
</g>
</g>
<!-- Dijkstra -->
<g id="node9" class="node">
<title>Dijkstra</title>
<g id="a_node9"><a xlink:href="Dijkstra.html" xlink:title="Dijkstra✓">
<ellipse fill="none" stroke="green" cx="341.35" cy="-234" rx="48.19" ry="18"/>
<text text-anchor="middle" x="341.35" y="-230.3" font-family="Times,serif" font-size="14.00">Dijkstra✓</text>
</a>
</g>
</g>
<!-- FinEnum -->
<g id="node10" class="node">
<title>FinEnum</title>
<g id="a_node10"><a xlink:href="FinEnum.html" xlink:title="FinEnum✓">
<ellipse fill="none" stroke="green" cx="305.35" cy="-522" rx="53.09" ry="18"/>
<text text-anchor="middle" x="305.35" y="-518.3" font-family="Times,serif" font-size="14.00">FinEnum✓</text>
</a>
</g>
</g>
<!-- FinEnum&#45;&gt;NatGraph -->
<g id="edge19" class="edge">
<title>FinEnum&#45;&gt;NatGraph</title>
<path fill="none" stroke="black" d="M312.94,-504.15C323.9,-479.84 344.26,-434.66 357.29,-405.75"/>
<polygon fill="black" stroke="black" points="360.65,-406.82 361.56,-396.27 354.26,-403.95 360.65,-406.82"/>
</g>
<!-- SearchAlgorithm -->
<g id="node19" class="node">
<title>SearchAlgorithm</title>
<g id="a_node19"><a xlink:href="SearchAlgorithm.html" xlink:title="SearchAlgorithm✓">
<ellipse fill="none" stroke="green" cx="201.35" cy="-450" rx="81.49" ry="18"/>
<text text-anchor="middle" x="201.35" y="-446.3" font-family="Times,serif" font-size="14.00">SearchAlgorithm✓</text>
</a>
</g>
</g>
<!-- FinEnum&#45;&gt;SearchAlgorithm -->
<g id="edge24" class="edge">
<title>FinEnum&#45;&gt;SearchAlgorithm</title>
<path fill="none" stroke="black" d="M282.52,-505.64C268.3,-496.06 249.76,-483.59 233.99,-472.97"/>
<polygon fill="black" stroke="black" points="235.82,-469.98 225.56,-467.3 231.91,-475.79 235.82,-469.98"/>
</g>
<!-- HeuristicSearch -->
<g id="node12" class="node">
<title>HeuristicSearch</title>
<g id="a_node12"><a xlink:href="HeuristicSearch.html" xlink:title="HeuristicSearch✓">
<ellipse fill="none" stroke="green" cx="335.35" cy="-306" rx="76.09" ry="18"/>
<text text-anchor="middle" x="335.35" y="-302.3" font-family="Times,serif" font-size="14.00">HeuristicSearch✓</text>
</a>
</g>
</g>
<!-- HeuristicSearch&#45;&gt;AStar -->
<g id="edge1" class="edge">
<title>HeuristicSearch&#45;&gt;AStar</title>
<path fill="none" stroke="black" d="M312.15,-288.76C297.97,-278.84 279.71,-266.05 264.55,-255.44"/>
<polygon fill="black" stroke="black" points="266.24,-252.35 256.04,-249.48 262.22,-258.08 266.24,-252.35"/>
</g>
<!-- HeuristicSearch&#45;&gt;Dijkstra -->
<g id="edge10" class="edge">
<title>HeuristicSearch&#45;&gt;Dijkstra</title>
<path fill="none" stroke="black" d="M336.83,-287.7C337.49,-279.98 338.29,-270.71 339.02,-262.11"/>
<polygon fill="black" stroke="black" points="342.51,-262.37 339.88,-252.1 335.54,-261.77 342.51,-262.37"/>
</g>
<!-- Heuristics -->
<g id="node13" class="node">
<title>Heuristics</title>
<g id="a_node13"><a xlink:href="Heuristics.html" xlink:title="Heuristics✓">
<ellipse fill="none" stroke="green" cx="474.35" cy="-234" rx="55.79" ry="18"/>
<text text-anchor="middle" x="474.35" y="-230.3" font-family="Times,serif" font-size="14.00">Heuristics✓</text>
</a>
</g>
</g>
<!-- Heuristics&#45;&gt;AbstractionHeuristic -->
<g id="edge3" class="edge">
<title>Heuristics&#45;&gt;AbstractionHeuristic</title>
<path fill="none" stroke="black" d="M445.34,-218.5C425.07,-208.36 397.71,-194.68 375.23,-183.44"/>
<polygon fill="black" stroke="black" points="376.76,-180.29 366.25,-178.95 373.63,-186.55 376.76,-180.29"/>
</g>
<!-- Heuristics&#45;&gt;CostPartitioning -->
<g id="edge6" class="edge">
<title>Heuristics&#45;&gt;CostPartitioning</title>
<path fill="none" stroke="black" d="M485.97,-216.05C491.6,-207.84 498.49,-197.79 504.75,-188.66"/>
<polygon fill="black" stroke="black" points="507.73,-190.5 510.5,-180.28 501.96,-186.54 507.73,-190.5"/>
</g>
<!-- Heuristics&#45;&gt;Planner -->
<g id="edge22" class="edge">
<title>Heuristics&#45;&gt;Planner</title>
<path fill="none" stroke="black" d="M429.75,-222.97C419.44,-220.67 408.51,-218.24 398.35,-216 324.62,-199.76 305.41,-198.98 232.35,-180 228.58,-179.02 224.69,-177.96 220.8,-176.85"/>
<polygon fill="black" stroke="black" points="221.75,-173.48 211.17,-174.05 219.8,-180.21 221.75,-173.48"/>
</g>
<!-- Lists -->
<g id="node14" class="node">
<title>Lists</title>
<g id="a_node14"><a xlink:href="Lists.html" xlink:title="Lists✓">
<ellipse fill="none" stroke="green" cx="279.35" cy="-666" rx="37.09" ry="18"/>
<text text-anchor="middle" x="279.35" y="-662.3" font-family="Times,serif" font-size="14.00">Lists✓</text>
</a>
</g>
</g>
<!-- Lists&#45;&gt;Basic -->
<g id="edge5" class="edge">
<title>Lists&#45;&gt;Basic</title>
<path fill="none" stroke="black" d="M279.35,-647.7C279.35,-639.98 279.35,-630.71 279.35,-622.11"/>
<polygon fill="black" stroke="black" points="282.85,-622.1 279.35,-612.1 275.85,-622.1 282.85,-622.1"/>
</g>
<!-- NatGraph&#45;&gt;HeuristicSearch -->
<g id="edge14" class="edge">
<title>NatGraph&#45;&gt;HeuristicSearch</title>
<path fill="none" stroke="black" d="M361.12,-360.05C357.25,-352.09 352.55,-342.41 348.22,-333.51"/>
<polygon fill="black" stroke="black" points="351.25,-331.74 343.74,-324.28 344.96,-334.8 351.25,-331.74"/>
</g>
<!-- Planning -->
<g id="node18" class="node">
<title>Planning</title>
<g id="a_node18"><a xlink:href="Planning.html" xlink:title="Planning✓">
<ellipse fill="none" stroke="green" cx="480.35" cy="-306" rx="51.19" ry="18"/>
<text text-anchor="middle" x="480.35" y="-302.3" font-family="Times,serif" font-size="14.00">Planning✓</text>
</a>
</g>
</g>
<!-- NatGraph&#45;&gt;Planning -->
<g id="edge23" class="edge">
<title>NatGraph&#45;&gt;Planning</title>
<path fill="none" stroke="black" d="M393.43,-361.81C409.29,-351.81 430.24,-338.6 447.6,-327.65"/>
<polygon fill="black" stroke="black" points="449.72,-330.45 456.31,-322.16 445.98,-324.53 449.72,-330.45"/>
</g>
<!-- PerfectHeuristic -->
<g id="node16" class="node">
<title>PerfectHeuristic</title>
<g id="a_node16"><a xlink:href="PerfectHeuristic.html" xlink:title="PerfectHeuristic✓">
<ellipse fill="none" stroke="green" cx="353.35" cy="-90" rx="77.19" ry="18"/>
<text text-anchor="middle" x="353.35" y="-86.3" font-family="Times,serif" font-size="14.00">PerfectHeuristic✓</text>
</a>
</g>
</g>
<!-- PerfectHeuristic&#45;&gt;H1 -->
<g id="edge12" class="edge">
<title>PerfectHeuristic&#45;&gt;H1</title>
<path fill="none" stroke="black" d="M353.35,-71.7C353.35,-63.98 353.35,-54.71 353.35,-46.11"/>
<polygon fill="black" stroke="black" points="356.85,-46.1 353.35,-36.1 349.85,-46.1 356.85,-46.1"/>
</g>
<!-- Planner&#45;&gt;DeleteRelaxation -->
<g id="edge9" class="edge">
<title>Planner&#45;&gt;DeleteRelaxation</title>
<path fill="none" stroke="black" d="M176.35,-143.7C176.35,-135.98 176.35,-126.71 176.35,-118.11"/>
<polygon fill="black" stroke="black" points="179.85,-118.1 176.35,-108.1 172.85,-118.1 179.85,-118.1"/>
</g>
<!-- Planner&#45;&gt;PerfectHeuristic -->
<g id="edge20" class="edge">
<title>Planner&#45;&gt;PerfectHeuristic</title>
<path fill="none" stroke="black" d="M207.99,-148.49C235.39,-137.65 275.38,-121.83 306.49,-109.53"/>
<polygon fill="black" stroke="black" points="307.82,-112.77 315.84,-105.83 305.25,-106.26 307.82,-112.77"/>
</g>
<!-- Planning&#45;&gt;CriticalPath -->
<g id="edge7" class="edge">
<title>Planning&#45;&gt;CriticalPath</title>
<path fill="none" stroke="black" d="M502.02,-289.53C537.57,-264.17 608.36,-213.66 648.92,-184.71"/>
<polygon fill="black" stroke="black" points="650.98,-187.54 657.09,-178.88 646.92,-181.84 650.98,-187.54"/>
</g>
<!-- Planning&#45;&gt;Heuristics -->
<g id="edge16" class="edge">
<title>Planning&#45;&gt;Heuristics</title>
<path fill="none" stroke="black" d="M478.86,-287.7C478.2,-279.98 477.41,-270.71 476.67,-262.11"/>
<polygon fill="black" stroke="black" points="480.15,-261.77 475.81,-252.1 473.18,-262.37 480.15,-261.77"/>
</g>
<!-- SearchStep -->
<g id="node21" class="node">
<title>SearchStep</title>
<g id="a_node21"><a xlink:href="SearchStep.html" xlink:title="SearchStep✓">
<ellipse fill="none" stroke="green" cx="201.35" cy="-378" rx="59.59" ry="18"/>
<text text-anchor="middle" x="201.35" y="-374.3" font-family="Times,serif" font-size="14.00">SearchStep✓</text>
</a>
</g>
</g>
<!-- SearchAlgorithm&#45;&gt;SearchStep -->
<g id="edge27" class="edge">
<title>SearchAlgorithm&#45;&gt;SearchStep</title>
<path fill="none" stroke="black" d="M201.35,-431.7C201.35,-423.98 201.35,-414.71 201.35,-406.11"/>
<polygon fill="black" stroke="black" points="204.85,-406.1 201.35,-396.1 197.85,-406.1 204.85,-406.1"/>
</g>
<!-- SearchState&#45;&gt;SearchAlgorithm -->
<g id="edge25" class="edge">
<title>SearchState&#45;&gt;SearchAlgorithm</title>
<path fill="none" stroke="black" d="M179.37,-504.05C182.63,-496.18 186.59,-486.62 190.25,-477.79"/>
<polygon fill="black" stroke="black" points="193.6,-478.85 194.19,-468.28 187.13,-476.17 193.6,-478.85"/>
</g>
<!-- SearchStep&#45;&gt;BFS -->
<g id="edge4" class="edge">
<title>SearchStep&#45;&gt;BFS</title>
<path fill="none" stroke="black" d="M180.02,-361.12C166.61,-351.13 149.19,-338.16 134.77,-327.42"/>
<polygon fill="black" stroke="black" points="136.78,-324.56 126.67,-321.39 132.6,-330.17 136.78,-324.56"/>
</g>
<!-- SearchStep&#45;&gt;DFS2 -->
<g id="edge8" class="edge">
<title>SearchStep&#45;&gt;DFS2</title>
<path fill="none" stroke="black" d="M201.35,-359.7C201.35,-351.98 201.35,-342.71 201.35,-334.11"/>
<polygon fill="black" stroke="black" points="204.85,-334.1 201.35,-324.1 197.85,-334.1 204.85,-334.1"/>
</g>
<!-- SearchStep&#45;&gt;HeuristicSearch -->
<g id="edge15" class="edge">
<title>SearchStep&#45;&gt;HeuristicSearch</title>
<path fill="none" stroke="black" d="M229.76,-362.15C249.04,-352.09 274.77,-338.64 296.01,-327.55"/>
<polygon fill="black" stroke="black" points="297.86,-330.53 305.11,-322.8 294.62,-324.32 297.86,-330.53"/>
</g>
<!-- temp -->
<g id="node22" class="node">
<title>temp</title>
<g id="a_node22"><a xlink:href="temp.html" xlink:title="temp✓">
<ellipse fill="none" stroke="green" cx="38.35" cy="-90" rx="38.19" ry="18"/>
<text text-anchor="middle" x="38.35" y="-86.3" font-family="Times,serif" font-size="14.00">temp✓</text>
</a>
</g>
</g>
<!-- temp&#45;&gt;H1 -->
<g id="edge13" class="edge">
<title>temp&#45;&gt;H1</title>
<path fill="none" stroke="black" d="M67.07,-78.07C73.37,-75.89 80.04,-73.73 86.35,-72 166.24,-50.05 261.92,-33.31 314.3,-24.93"/>
<polygon fill="black" stroke="black" points="314.85,-28.39 324.18,-23.37 313.76,-21.48 314.85,-28.39"/>
</g>
<!-- WF -->
<g id="node23" class="node">
<title>WF</title>
<g id="a_node23"><a xlink:href="WF.html" xlink:title="WF✓">
<ellipse fill="none" stroke="green" cx="279.35" cy="-738" rx="33.6" ry="18"/>
<text text-anchor="middle" x="279.35" y="-734.3" font-family="Times,serif" font-size="14.00">WF✓</text>
</a>
</g>
</g>
<!-- WF&#45;&gt;Lists -->
<g id="edge17" class="edge">
<title>WF&#45;&gt;Lists</title>
<path fill="none" stroke="black" d="M279.35,-719.7C279.35,-711.98 279.35,-702.71 279.35,-694.11"/>
<polygon fill="black" stroke="black" points="282.85,-694.1 279.35,-684.1 275.85,-694.1 282.85,-694.1"/>
</g>
</g>
</svg>
