<?xml version="1.0" encoding="UTF-8" standalone="no"?>
<!DOCTYPE svg PUBLIC "-//W3C//DTD SVG 1.1//EN"
 "http://www.w3.org/Graphics/SVG/1.1/DTD/svg11.dtd">
<!-- Generated by graphviz version 2.42.4 (0)
 -->
<!-- Pages: 1 -->
<svg width="2086pt" height="908pt"
 viewBox="0.00 0.00 2086.00 908.00" xmlns="http://www.w3.org/2000/svg" xmlns:xlink="http://www.w3.org/1999/xlink">
<g id="graph0" class="graph" transform="scale(1 1) rotate(0) translate(4 904)">
<polygon fill="white" stroke="transparent" points="-4,4 -4,-904 2082,-904 2082,4 -4,4"/>
<!-- AbstractionHeuristic -->
<g id="node1" class="node">
<title>AbstractionHeuristic</title>
<g id="a_node1"><a xlink:href="AbstractionHeuristic.html" xlink:title="AbstractionHeuristic✓">
<ellipse fill="none" stroke="green" cx="641" cy="-162" rx="92.88" ry="18"/>
<text text-anchor="middle" x="641" y="-158.3" font-family="Times,serif" font-size="14.00">AbstractionHeuristic✓</text>
</a>
</g>
</g>
<!-- AStar -->
<g id="node2" class="node">
<title>AStar</title>
<g id="a_node2"><a xlink:href="AStar.html" xlink:title="AStar✓">
<ellipse fill="none" stroke="green" cx="1023" cy="-378" rx="40.09" ry="18"/>
<text text-anchor="middle" x="1023" y="-374.3" font-family="Times,serif" font-size="14.00">AStar✓</text>
</a>
</g>
</g>
<!-- Planning -->
<g id="node18" class="node">
<title>Planning</title>
<g id="a_node18"><a xlink:href="Planning.html" xlink:title="Planning✓">
<ellipse fill="none" stroke="green" cx="762" cy="-306" rx="51.19" ry="18"/>
<text text-anchor="middle" x="762" y="-302.3" font-family="Times,serif" font-size="14.00">Planning✓</text>
</a>
</g>
</g>
<!-- AStar&#45;&gt;Planning -->
<g id="edge76" class="edge">
<title>AStar&#45;&gt;Planning</title>
<path fill="none" stroke="black" d="M989.41,-367.99C944.14,-355.85 863.23,-334.15 811.12,-320.17"/>
<polygon fill="black" stroke="black" points="811.99,-316.78 801.42,-317.57 810.17,-323.54 811.99,-316.78"/>
</g>
<!-- Basic -->
<g id="node3" class="node">
<title>Basic</title>
<g id="a_node3"><a xlink:href="Basic.html" xlink:title="Basic✓">
<ellipse fill="none" stroke="green" cx="1446" cy="-738" rx="39.79" ry="18"/>
<text text-anchor="middle" x="1446" y="-734.3" font-family="Times,serif" font-size="14.00">Basic✓</text>
</a>
</g>
</g>
<!-- Basic&#45;&gt;AStar -->
<g id="edge4" class="edge">
<title>Basic&#45;&gt;AStar</title>
<path fill="none" stroke="black" d="M1406.13,-736.25C1355.54,-733.59 1267.27,-723.15 1204,-684 1103.08,-621.55 1093.31,-577.27 1047,-468 1038.49,-447.92 1032.24,-424 1028.26,-406.02"/>
<polygon fill="black" stroke="black" points="1031.67,-405.25 1026.17,-396.19 1024.82,-406.7 1031.67,-405.25"/>
</g>
<!-- BFS -->
<g id="node4" class="node">
<title>BFS</title>
<g id="a_node4"><a xlink:href="BFS.html" xlink:title="BFS✓">
<ellipse fill="none" stroke="green" cx="1831" cy="-450" rx="36" ry="18"/>
<text text-anchor="middle" x="1831" y="-446.3" font-family="Times,serif" font-size="14.00">BFS✓</text>
</a>
</g>
</g>
<!-- Basic&#45;&gt;BFS -->
<g id="edge16" class="edge">
<title>Basic&#45;&gt;BFS</title>
<path fill="none" stroke="black" d="M1484.5,-733.24C1530.44,-727.57 1608.63,-714.09 1669,-684 1758.84,-639.23 1800.27,-630.83 1843,-540 1852.24,-520.36 1847.88,-495.76 1841.98,-477.4"/>
<polygon fill="black" stroke="black" points="1845.26,-476.18 1838.62,-467.92 1838.66,-478.51 1845.26,-476.18"/>
</g>
<!-- DFS2 -->
<g id="node8" class="node">
<title>DFS2</title>
<g id="a_node8"><a xlink:href="DFS2.html" xlink:title="DFS2✓">
<ellipse fill="none" stroke="green" cx="1542" cy="-450" rx="40.09" ry="18"/>
<text text-anchor="middle" x="1542" y="-446.3" font-family="Times,serif" font-size="14.00">DFS2✓</text>
</a>
</g>
</g>
<!-- Basic&#45;&gt;DFS2 -->
<g id="edge30" class="edge">
<title>Basic&#45;&gt;DFS2</title>
<path fill="none" stroke="black" d="M1485.89,-737.17C1529.64,-735.13 1599.06,-725.03 1640,-684 1697.82,-626.06 1725.28,-571.52 1679,-504 1659.44,-475.46 1622.14,-462.29 1591.39,-456.21"/>
<polygon fill="black" stroke="black" points="1591.71,-452.71 1581.25,-454.4 1590.48,-459.6 1591.71,-452.71"/>
</g>
<!-- Dijkstra -->
<g id="node9" class="node">
<title>Dijkstra</title>
<g id="a_node9"><a xlink:href="Dijkstra.html" xlink:title="Dijkstra✓">
<ellipse fill="none" stroke="green" cx="1736" cy="-378" rx="48.19" ry="18"/>
<text text-anchor="middle" x="1736" y="-374.3" font-family="Times,serif" font-size="14.00">Dijkstra✓</text>
</a>
</g>
</g>
<!-- Basic&#45;&gt;Dijkstra -->
<g id="edge41" class="edge">
<title>Basic&#45;&gt;Dijkstra</title>
<path fill="none" stroke="black" d="M1485.54,-735.42C1612.56,-729.27 2002,-701.72 2002,-595 2002,-595 2002,-595 2002,-521 2002,-426.81 1870.61,-394.88 1792.51,-384.21"/>
<polygon fill="black" stroke="black" points="1792.7,-380.71 1782.33,-382.9 1791.8,-387.65 1792.7,-380.71"/>
</g>
<!-- HeuristicSearch -->
<g id="node12" class="node">
<title>HeuristicSearch</title>
<g id="a_node12"><a xlink:href="HeuristicSearch.html" xlink:title="HeuristicSearch✓">
<ellipse fill="none" stroke="green" cx="1208" cy="-450" rx="76.09" ry="18"/>
<text text-anchor="middle" x="1208" y="-446.3" font-family="Times,serif" font-size="14.00">HeuristicSearch✓</text>
</a>
</g>
</g>
<!-- Basic&#45;&gt;HeuristicSearch -->
<g id="edge57" class="edge">
<title>Basic&#45;&gt;HeuristicSearch</title>
<path fill="none" stroke="black" d="M1406.3,-737.13C1359.99,-735.22 1283.61,-725.37 1235,-684 1175.49,-633.34 1190.03,-527.69 1201.04,-477.97"/>
<polygon fill="black" stroke="black" points="1204.51,-478.5 1203.38,-467.97 1197.69,-476.91 1204.51,-478.5"/>
</g>
<!-- NatGraph -->
<g id="node15" class="node">
<title>NatGraph</title>
<g id="a_node15"><a xlink:href="NatGraph.html" xlink:title="NatGraph✓">
<ellipse fill="none" stroke="green" cx="781" cy="-522" rx="54.69" ry="18"/>
<text text-anchor="middle" x="781" y="-518.3" font-family="Times,serif" font-size="14.00">NatGraph✓</text>
</a>
</g>
</g>
<!-- Basic&#45;&gt;NatGraph -->
<g id="edge65" class="edge">
<title>Basic&#45;&gt;NatGraph</title>
<path fill="none" stroke="black" d="M1408.32,-732.36C1321.68,-720.73 1102.83,-685.81 935,-612 890.62,-592.48 842.75,-563.43 812.37,-543.88"/>
<polygon fill="black" stroke="black" points="814.19,-540.89 803.9,-538.38 810.38,-546.76 814.19,-540.89"/>
</g>
<!-- SearchAlgorithm -->
<g id="node19" class="node">
<title>SearchAlgorithm</title>
<g id="a_node19"><a xlink:href="SearchAlgorithm.html" xlink:title="SearchAlgorithm✓">
<ellipse fill="none" stroke="green" cx="1441" cy="-594" rx="81.49" ry="18"/>
<text text-anchor="middle" x="1441" y="-590.3" font-family="Times,serif" font-size="14.00">SearchAlgorithm✓</text>
</a>
</g>
</g>
<!-- Basic&#45;&gt;SearchAlgorithm -->
<g id="edge79" class="edge">
<title>Basic&#45;&gt;SearchAlgorithm</title>
<path fill="none" stroke="black" d="M1445.4,-719.87C1444.54,-695.67 1442.98,-651.21 1441.96,-622.39"/>
<polygon fill="black" stroke="black" points="1445.46,-622.06 1441.61,-612.19 1438.46,-622.31 1445.46,-622.06"/>
</g>
<!-- SearchState -->
<g id="node20" class="node">
<title>SearchState</title>
<g id="a_node20"><a xlink:href="SearchState.html" xlink:title="SearchState✓">
<ellipse fill="none" stroke="green" cx="1569" cy="-666" rx="61.99" ry="18"/>
<text text-anchor="middle" x="1569" y="-662.3" font-family="Times,serif" font-size="14.00">SearchState✓</text>
</a>
</g>
</g>
<!-- Basic&#45;&gt;SearchState -->
<g id="edge81" class="edge">
<title>Basic&#45;&gt;SearchState</title>
<path fill="none" stroke="black" d="M1469.72,-723.5C1487.72,-713.26 1512.77,-699 1533.2,-687.37"/>
<polygon fill="black" stroke="black" points="1534.97,-690.39 1541.93,-682.41 1531.51,-684.31 1534.97,-690.39"/>
</g>
<!-- CostPartitioning -->
<g id="node5" class="node">
<title>CostPartitioning</title>
<g id="a_node5"><a xlink:href="CostPartitioning.html" xlink:title="CostPartitioning✓">
<ellipse fill="none" stroke="green" cx="905" cy="-162" rx="77.19" ry="18"/>
<text text-anchor="middle" x="905" y="-158.3" font-family="Times,serif" font-size="14.00">CostPartitioning✓</text>
</a>
</g>
</g>
<!-- CriticalPath -->
<g id="node6" class="node">
<title>CriticalPath</title>
<g id="a_node6"><a xlink:href="CriticalPath.html" xlink:title="CriticalPath✓">
<ellipse fill="none" stroke="green" cx="204" cy="-162" rx="61.99" ry="18"/>
<text text-anchor="middle" x="204" y="-158.3" font-family="Times,serif" font-size="14.00">CriticalPath✓</text>
</a>
</g>
</g>
<!-- H1 -->
<g id="node11" class="node">
<title>H1</title>
<g id="a_node11"><a xlink:href="H1.html" xlink:title="H1✓">
<ellipse fill="none" stroke="green" cx="234" cy="-18" rx="30.59" ry="18"/>
<text text-anchor="middle" x="234" y="-14.3" font-family="Times,serif" font-size="14.00">H1✓</text>
</a>
</g>
</g>
<!-- CriticalPath&#45;&gt;H1 -->
<g id="edge50" class="edge">
<title>CriticalPath&#45;&gt;H1</title>
<path fill="none" stroke="black" d="M179.92,-145.42C167.91,-136.16 154.56,-123.25 148,-108 141.67,-93.3 140.2,-85.97 148,-72 158.78,-52.7 179.79,-39.56 198.34,-31.19"/>
<polygon fill="black" stroke="black" points="199.89,-34.34 207.75,-27.24 197.18,-27.88 199.89,-34.34"/>
</g>
<!-- DeleteRelaxation -->
<g id="node7" class="node">
<title>DeleteRelaxation</title>
<g id="a_node7"><a xlink:href="DeleteRelaxation.html" xlink:title="DeleteRelaxation✓">
<ellipse fill="none" stroke="green" cx="411" cy="-90" rx="81.49" ry="18"/>
<text text-anchor="middle" x="411" y="-86.3" font-family="Times,serif" font-size="14.00">DeleteRelaxation✓</text>
</a>
</g>
</g>
<!-- FinEnum -->
<g id="node10" class="node">
<title>FinEnum</title>
<g id="a_node10"><a xlink:href="FinEnum.html" xlink:title="FinEnum✓">
<ellipse fill="none" stroke="green" cx="1297" cy="-666" rx="53.09" ry="18"/>
<text text-anchor="middle" x="1297" y="-662.3" font-family="Times,serif" font-size="14.00">FinEnum✓</text>
</a>
</g>
</g>
<!-- FinEnum&#45;&gt;AStar -->
<g id="edge3" class="edge">
<title>FinEnum&#45;&gt;AStar</title>
<path fill="none" stroke="black" d="M1260.37,-652.78C1237.57,-643.93 1208.59,-630.3 1187,-612 1115.14,-551.07 1059.43,-451.84 1035.62,-405.02"/>
<polygon fill="black" stroke="black" points="1038.63,-403.23 1031.02,-395.86 1032.38,-406.37 1038.63,-403.23"/>
</g>
<!-- FinEnum&#45;&gt;BFS -->
<g id="edge15" class="edge">
<title>FinEnum&#45;&gt;BFS</title>
<path fill="none" stroke="black" d="M1345.06,-657.93C1454.26,-641.07 1716.85,-595.68 1785,-540 1804.5,-524.07 1816.66,-497.7 1823.54,-477.78"/>
<polygon fill="black" stroke="black" points="1826.94,-478.64 1826.67,-468.05 1820.27,-476.5 1826.94,-478.64"/>
</g>
<!-- FinEnum&#45;&gt;DFS2 -->
<g id="edge29" class="edge">
<title>FinEnum&#45;&gt;DFS2</title>
<path fill="none" stroke="black" d="M1304.44,-648.08C1313.44,-628.96 1330.03,-597.7 1351,-576 1397.25,-528.15 1465,-489.29 1506.15,-468.22"/>
<polygon fill="black" stroke="black" points="1507.91,-471.25 1515.26,-463.62 1504.76,-465 1507.91,-471.25"/>
</g>
<!-- FinEnum&#45;&gt;Dijkstra -->
<g id="edge40" class="edge">
<title>FinEnum&#45;&gt;Dijkstra</title>
<path fill="none" stroke="black" d="M1298.76,-647.96C1301.27,-629.29 1307.1,-598.95 1320,-576 1369.02,-488.79 1401.35,-472.1 1493,-432 1553.88,-405.36 1629.38,-391.6 1679.92,-384.86"/>
<polygon fill="black" stroke="black" points="1680.53,-388.31 1690,-383.56 1679.64,-381.36 1680.53,-388.31"/>
</g>
<!-- FinEnum&#45;&gt;HeuristicSearch -->
<g id="edge56" class="edge">
<title>FinEnum&#45;&gt;HeuristicSearch</title>
<path fill="none" stroke="black" d="M1258.51,-653.54C1238.48,-645.4 1215.76,-632.25 1204,-612 1179.81,-570.37 1189.97,-511.91 1199.22,-478.09"/>
<polygon fill="black" stroke="black" points="1202.59,-479.01 1202.02,-468.43 1195.87,-477.06 1202.59,-479.01"/>
</g>
<!-- FinEnum&#45;&gt;NatGraph -->
<g id="edge66" class="edge">
<title>FinEnum&#45;&gt;NatGraph</title>
<path fill="none" stroke="black" d="M1251.05,-656.55C1201.56,-647.09 1120.67,-630.65 1052,-612 971.24,-590.07 879.02,-558.31 825.66,-539.26"/>
<polygon fill="black" stroke="black" points="826.75,-535.93 816.16,-535.85 824.39,-542.52 826.75,-535.93"/>
</g>
<!-- FinEnum&#45;&gt;SearchAlgorithm -->
<g id="edge78" class="edge">
<title>FinEnum&#45;&gt;SearchAlgorithm</title>
<path fill="none" stroke="black" d="M1326.14,-650.83C1347.33,-640.54 1376.29,-626.45 1399.84,-615.01"/>
<polygon fill="black" stroke="black" points="1401.43,-618.13 1408.9,-610.61 1398.37,-611.83 1401.43,-618.13"/>
</g>
<!-- HeuristicSearch&#45;&gt;AStar -->
<g id="edge9" class="edge">
<title>HeuristicSearch&#45;&gt;AStar</title>
<path fill="none" stroke="black" d="M1169.22,-434.33C1137.82,-422.45 1093.78,-405.78 1062.26,-393.85"/>
<polygon fill="black" stroke="black" points="1063.5,-390.58 1052.9,-390.32 1061.02,-397.13 1063.5,-390.58"/>
</g>
<!-- HeuristicSearch&#45;&gt;Dijkstra -->
<g id="edge46" class="edge">
<title>HeuristicSearch&#45;&gt;Dijkstra</title>
<path fill="none" stroke="black" d="M1272.48,-440.45C1377.43,-426.54 1583.33,-399.24 1681.47,-386.23"/>
<polygon fill="black" stroke="black" points="1682.02,-389.69 1691.47,-384.9 1681.1,-382.75 1682.02,-389.69"/>
</g>
<!-- Heuristics -->
<g id="node13" class="node">
<title>Heuristics</title>
<g id="a_node13"><a xlink:href="Heuristics.html" xlink:title="Heuristics✓">
<ellipse fill="none" stroke="green" cx="529" cy="-234" rx="55.79" ry="18"/>
<text text-anchor="middle" x="529" y="-230.3" font-family="Times,serif" font-size="14.00">Heuristics✓</text>
</a>
</g>
</g>
<!-- Heuristics&#45;&gt;AbstractionHeuristic -->
<g id="edge12" class="edge">
<title>Heuristics&#45;&gt;AbstractionHeuristic</title>
<path fill="none" stroke="black" d="M553.58,-217.64C569.04,-207.97 589.23,-195.36 606.31,-184.68"/>
<polygon fill="black" stroke="black" points="608.29,-187.57 614.92,-179.3 604.58,-181.63 608.29,-187.57"/>
</g>
<!-- Heuristics&#45;&gt;CostPartitioning -->
<g id="edge23" class="edge">
<title>Heuristics&#45;&gt;CostPartitioning</title>
<path fill="none" stroke="black" d="M576.24,-224.21C641.93,-211.98 761.27,-189.76 836.66,-175.72"/>
<polygon fill="black" stroke="black" points="837.35,-179.15 846.54,-173.88 836.07,-172.27 837.35,-179.15"/>
</g>
<!-- Heuristics&#45;&gt;CriticalPath -->
<g id="edge26" class="edge">
<title>Heuristics&#45;&gt;CriticalPath</title>
<path fill="none" stroke="black" d="M483.81,-223.27C425.86,-210.79 325.31,-189.13 261.83,-175.46"/>
<polygon fill="black" stroke="black" points="262.49,-172.02 251.98,-173.33 261.02,-178.86 262.49,-172.02"/>
</g>
<!-- Heuristics&#45;&gt;DeleteRelaxation -->
<g id="edge36" class="edge">
<title>Heuristics&#45;&gt;DeleteRelaxation</title>
<path fill="none" stroke="black" d="M516.17,-216.39C502.14,-198.35 478.87,-168.81 458,-144 450.12,-134.63 441.26,-124.54 433.38,-115.7"/>
<polygon fill="black" stroke="black" points="435.75,-113.1 426.47,-107.99 430.54,-117.77 435.75,-113.1"/>
</g>
<!-- Heuristics&#45;&gt;H1 -->
<g id="edge49" class="edge">
<title>Heuristics&#45;&gt;H1</title>
<path fill="none" stroke="black" d="M531.67,-215.92C535.72,-183.16 539.35,-111.28 501,-72 470.05,-40.31 341.25,-26.61 274.5,-21.55"/>
<polygon fill="black" stroke="black" points="274.58,-18.04 264.35,-20.81 274.07,-25.02 274.58,-18.04"/>
</g>
<!-- PerfectHeuristic -->
<g id="node16" class="node">
<title>PerfectHeuristic</title>
<g id="a_node16"><a xlink:href="PerfectHeuristic.html" xlink:title="PerfectHeuristic✓">
<ellipse fill="none" stroke="green" cx="234" cy="-90" rx="77.19" ry="18"/>
<text text-anchor="middle" x="234" y="-86.3" font-family="Times,serif" font-size="14.00">PerfectHeuristic✓</text>
</a>
</g>
</g>
<!-- Heuristics&#45;&gt;PerfectHeuristic -->
<g id="edge69" class="edge">
<title>Heuristics&#45;&gt;PerfectHeuristic</title>
<path fill="none" stroke="black" d="M506.09,-217.55C491.75,-207.49 473.18,-193.72 458,-180 441.9,-165.44 443.51,-155.34 425,-144 403.77,-130.99 345.51,-115.75 298.87,-104.97"/>
<polygon fill="black" stroke="black" points="299.64,-101.55 289.11,-102.73 298.08,-108.37 299.64,-101.55"/>
</g>
<!-- Planner -->
<g id="node17" class="node">
<title>Planner</title>
<g id="a_node17"><a xlink:href="Planner.html" xlink:title="Planner✓">
<ellipse fill="none" stroke="green" cx="369" cy="-162" rx="46.59" ry="18"/>
<text text-anchor="middle" x="369" y="-158.3" font-family="Times,serif" font-size="14.00">Planner✓</text>
</a>
</g>
</g>
<!-- Heuristics&#45;&gt;Planner -->
<g id="edge74" class="edge">
<title>Heuristics&#45;&gt;Planner</title>
<path fill="none" stroke="black" d="M497.01,-219C471.39,-207.8 435.36,-192.03 408.04,-180.08"/>
<polygon fill="black" stroke="black" points="409.34,-176.83 398.78,-176.03 406.54,-183.24 409.34,-176.83"/>
</g>
<!-- Lists -->
<g id="node14" class="node">
<title>Lists</title>
<g id="a_node14"><a xlink:href="Lists.html" xlink:title="Lists✓">
<ellipse fill="none" stroke="green" cx="1259" cy="-810" rx="37.09" ry="18"/>
<text text-anchor="middle" x="1259" y="-806.3" font-family="Times,serif" font-size="14.00">Lists✓</text>
</a>
</g>
</g>
<!-- Lists&#45;&gt;AStar -->
<g id="edge2" class="edge">
<title>Lists&#45;&gt;AStar</title>
<path fill="none" stroke="black" d="M1225.27,-802.31C1145.52,-784.31 952,-727.05 952,-595 952,-595 952,-595 952,-521 952,-475.73 981.22,-430.11 1002.17,-403.21"/>
<polygon fill="black" stroke="black" points="1005.1,-405.15 1008.63,-395.16 999.64,-400.77 1005.1,-405.15"/>
</g>
<!-- Lists&#45;&gt;Basic -->
<g id="edge20" class="edge">
<title>Lists&#45;&gt;Basic</title>
<path fill="none" stroke="black" d="M1287.4,-798.37C1319.25,-786.45 1371.1,-767.04 1406.79,-753.68"/>
<polygon fill="black" stroke="black" points="1408.26,-756.86 1416.4,-750.08 1405.81,-750.31 1408.26,-756.86"/>
</g>
<!-- Lists&#45;&gt;BFS -->
<g id="edge14" class="edge">
<title>Lists&#45;&gt;BFS</title>
<path fill="none" stroke="black" d="M1296.29,-809.09C1436.76,-808.42 1926,-796.79 1926,-667 1926,-667 1926,-667 1926,-593 1926,-543.38 1885.44,-497.98 1857.32,-472.47"/>
<polygon fill="black" stroke="black" points="1859.59,-469.8 1849.77,-465.81 1854.96,-475.05 1859.59,-469.8"/>
</g>
<!-- Lists&#45;&gt;DFS2 -->
<g id="edge28" class="edge">
<title>Lists&#45;&gt;DFS2</title>
<path fill="none" stroke="black" d="M1250.76,-792.23C1237.16,-762.07 1213.54,-697.22 1235,-648 1272.57,-561.8 1309.45,-552.51 1390,-504 1423.38,-483.9 1465.48,-469.97 1496.9,-461.46"/>
<polygon fill="black" stroke="black" points="1497.93,-464.81 1506.71,-458.88 1496.15,-458.04 1497.93,-464.81"/>
</g>
<!-- Lists&#45;&gt;Dijkstra -->
<g id="edge39" class="edge">
<title>Lists&#45;&gt;Dijkstra</title>
<path fill="none" stroke="black" d="M1295.86,-807.64C1410.23,-803.11 1757.85,-787.09 1866,-756 1949.48,-732 2040,-753.86 2040,-667 2040,-667 2040,-667 2040,-521 2040,-413.56 1882.19,-387.22 1793.97,-380.9"/>
<polygon fill="black" stroke="black" points="1794.04,-377.39 1783.83,-380.24 1793.59,-384.38 1794.04,-377.39"/>
</g>
<!-- Lists&#45;&gt;HeuristicSearch -->
<g id="edge55" class="edge">
<title>Lists&#45;&gt;HeuristicSearch</title>
<path fill="none" stroke="black" d="M1223.02,-805.6C1191.53,-800.51 1147.55,-787.79 1126,-756 1064.66,-665.53 1148.56,-531.03 1188.71,-475.92"/>
<polygon fill="black" stroke="black" points="1191.61,-477.89 1194.75,-467.77 1185.98,-473.72 1191.61,-477.89"/>
</g>
<!-- Lists&#45;&gt;SearchAlgorithm -->
<g id="edge77" class="edge">
<title>Lists&#45;&gt;SearchAlgorithm</title>
<path fill="none" stroke="black" d="M1272.68,-792.92C1304.28,-755.76 1382.5,-663.79 1420.13,-619.54"/>
<polygon fill="black" stroke="black" points="1422.85,-621.75 1426.66,-611.86 1417.51,-617.21 1422.85,-621.75"/>
</g>
<!-- NatGraph&#45;&gt;AbstractionHeuristic -->
<g id="edge10" class="edge">
<title>NatGraph&#45;&gt;AbstractionHeuristic</title>
<path fill="none" stroke="black" d="M755.47,-506C720.51,-483.32 662,-436.74 662,-379 662,-379 662,-379 662,-305 662,-264.78 653.65,-218.84 647.49,-190.37"/>
<polygon fill="black" stroke="black" points="650.85,-189.36 645.25,-180.37 644.01,-190.89 650.85,-189.36"/>
</g>
<!-- NatGraph&#45;&gt;AStar -->
<g id="edge5" class="edge">
<title>NatGraph&#45;&gt;AStar</title>
<path fill="none" stroke="black" d="M802.14,-505.24C816.26,-494.71 835.25,-480.53 852,-468 873.35,-452.02 876.93,-445.37 900,-432 926.55,-416.61 958.42,-403.01 983.06,-393.43"/>
<polygon fill="black" stroke="black" points="984.37,-396.68 992.47,-389.84 981.88,-390.14 984.37,-396.68"/>
</g>
<!-- NatGraph&#45;&gt;CostPartitioning -->
<g id="edge21" class="edge">
<title>NatGraph&#45;&gt;CostPartitioning</title>
<path fill="none" stroke="black" d="M786.98,-503.73C806.95,-446.08 871.44,-259.89 895.68,-189.92"/>
<polygon fill="black" stroke="black" points="899.11,-190.69 899.08,-180.09 892.5,-188.4 899.11,-190.69"/>
</g>
<!-- NatGraph&#45;&gt;CriticalPath -->
<g id="edge24" class="edge">
<title>NatGraph&#45;&gt;CriticalPath</title>
<path fill="none" stroke="black" d="M726.21,-521.4C611.82,-521.26 352.23,-515.55 280,-468 242.1,-443.05 230,-424.37 230,-379 230,-379 230,-379 230,-305 230,-264.55 219.67,-218.67 212.03,-190.28"/>
<polygon fill="black" stroke="black" points="215.31,-189 209.26,-180.3 208.56,-190.87 215.31,-189"/>
</g>
<!-- NatGraph&#45;&gt;DeleteRelaxation -->
<g id="edge34" class="edge">
<title>NatGraph&#45;&gt;DeleteRelaxation</title>
<path fill="none" stroke="black" d="M726.46,-521.07C653.38,-519.41 520.85,-510.14 417,-468 354.48,-442.63 294,-446.48 294,-379 294,-379 294,-379 294,-233 294,-192.55 288.76,-176.38 313,-144 324.3,-128.91 341.2,-117.63 357.79,-109.44"/>
<polygon fill="black" stroke="black" points="359.34,-112.58 366.94,-105.21 356.4,-106.23 359.34,-112.58"/>
</g>
<!-- NatGraph&#45;&gt;Dijkstra -->
<g id="edge42" class="edge">
<title>NatGraph&#45;&gt;Dijkstra</title>
<path fill="none" stroke="black" d="M818.75,-508.94C881.31,-489.46 1010.69,-451.33 1123,-432 1324.93,-397.25 1568.4,-384.82 1677.8,-380.77"/>
<polygon fill="black" stroke="black" points="1678.09,-384.26 1687.96,-380.41 1677.84,-377.27 1678.09,-384.26"/>
</g>
<!-- NatGraph&#45;&gt;H1 -->
<g id="edge47" class="edge">
<title>NatGraph&#45;&gt;H1</title>
<path fill="none" stroke="black" d="M793.07,-504.36C800.59,-493.95 810.42,-480.24 819,-468 915.21,-330.75 1117.94,-273.88 1012,-144 917.94,-28.69 421.87,-19.09 275,-18.81"/>
<polygon fill="black" stroke="black" points="274.65,-15.31 264.64,-18.8 274.64,-22.31 274.65,-15.31"/>
</g>
<!-- NatGraph&#45;&gt;HeuristicSearch -->
<g id="edge58" class="edge">
<title>NatGraph&#45;&gt;HeuristicSearch</title>
<path fill="none" stroke="black" d="M829.91,-513.79C895.55,-504 1015.73,-485.7 1118,-468 1125.41,-466.72 1133.15,-465.33 1140.85,-463.92"/>
<polygon fill="black" stroke="black" points="1141.72,-467.32 1150.92,-462.06 1140.45,-460.43 1141.72,-467.32"/>
</g>
<!-- NatGraph&#45;&gt;Heuristics -->
<g id="edge62" class="edge">
<title>NatGraph&#45;&gt;Heuristics</title>
<path fill="none" stroke="black" d="M735.95,-511.65C707.91,-503.9 672.62,-490.43 648,-468 584.32,-409.98 549.68,-310.05 536,-262.15"/>
<polygon fill="black" stroke="black" points="539.3,-260.92 533.26,-252.21 532.55,-262.78 539.3,-260.92"/>
</g>
<!-- NatGraph&#45;&gt;PerfectHeuristic -->
<g id="edge67" class="edge">
<title>NatGraph&#45;&gt;PerfectHeuristic</title>
<path fill="none" stroke="black" d="M726.42,-521.41C627.4,-520.89 412.24,-513.98 238,-468 143.93,-443.18 38,-476.29 38,-379 38,-379 38,-379 38,-233 38,-164.98 116.38,-126.2 174.01,-106.88"/>
<polygon fill="black" stroke="black" points="175.34,-110.13 183.78,-103.72 173.19,-103.47 175.34,-110.13"/>
</g>
<!-- NatGraph&#45;&gt;Planner -->
<g id="edge72" class="edge">
<title>NatGraph&#45;&gt;Planner</title>
<path fill="none" stroke="black" d="M730.89,-514.51C621.09,-498.88 369,-454.75 369,-379 369,-379 369,-379 369,-305 369,-265 369,-218.65 369,-190.08"/>
<polygon fill="black" stroke="black" points="372.5,-190.05 369,-180.05 365.5,-190.05 372.5,-190.05"/>
</g>
<!-- NatGraph&#45;&gt;Planning -->
<g id="edge75" class="edge">
<title>NatGraph&#45;&gt;Planning</title>
<path fill="none" stroke="black" d="M779.48,-503.85C776.19,-466.83 768.41,-379.18 764.43,-334.39"/>
<polygon fill="black" stroke="black" points="767.9,-333.88 763.53,-324.23 760.93,-334.5 767.9,-333.88"/>
</g>
<!-- PerfectHeuristic&#45;&gt;H1 -->
<g id="edge51" class="edge">
<title>PerfectHeuristic&#45;&gt;H1</title>
<path fill="none" stroke="black" d="M234,-71.7C234,-63.98 234,-54.71 234,-46.11"/>
<polygon fill="black" stroke="black" points="237.5,-46.1 234,-36.1 230.5,-46.1 237.5,-46.1"/>
</g>
<!-- Planner&#45;&gt;DeleteRelaxation -->
<g id="edge37" class="edge">
<title>Planner&#45;&gt;DeleteRelaxation</title>
<path fill="none" stroke="black" d="M378.95,-144.41C383.9,-136.16 389.99,-126.01 395.53,-116.78"/>
<polygon fill="black" stroke="black" points="398.68,-118.33 400.83,-107.96 392.68,-114.73 398.68,-118.33"/>
</g>
<!-- Planner&#45;&gt;PerfectHeuristic -->
<g id="edge70" class="edge">
<title>Planner&#45;&gt;PerfectHeuristic</title>
<path fill="none" stroke="black" d="M342.33,-147.17C322.7,-136.99 295.68,-122.98 273.54,-111.5"/>
<polygon fill="black" stroke="black" points="274.87,-108.25 264.39,-106.76 271.65,-114.47 274.87,-108.25"/>
</g>
<!-- Planning&#45;&gt;AbstractionHeuristic -->
<g id="edge11" class="edge">
<title>Planning&#45;&gt;AbstractionHeuristic</title>
<path fill="none" stroke="black" d="M747.88,-288.43C726.69,-263.56 686.5,-216.4 661.9,-187.53"/>
<polygon fill="black" stroke="black" points="664.55,-185.24 655.4,-179.9 659.22,-189.78 664.55,-185.24"/>
</g>
<!-- Planning&#45;&gt;CostPartitioning -->
<g id="edge22" class="edge">
<title>Planning&#45;&gt;CostPartitioning</title>
<path fill="none" stroke="black" d="M778.4,-288.71C803.46,-263.83 851.41,-216.22 880.56,-187.26"/>
<polygon fill="black" stroke="black" points="883.27,-189.51 887.9,-179.98 878.34,-184.54 883.27,-189.51"/>
</g>
<!-- Planning&#45;&gt;CriticalPath -->
<g id="edge25" class="edge">
<title>Planning&#45;&gt;CriticalPath</title>
<path fill="none" stroke="black" d="M712.67,-301C645.66,-294.74 522.58,-280.3 421,-252 356.64,-234.07 285.63,-202.56 242.94,-182.24"/>
<polygon fill="black" stroke="black" points="244.28,-179.01 233.75,-177.84 241.26,-185.32 244.28,-179.01"/>
</g>
<!-- Planning&#45;&gt;DeleteRelaxation -->
<g id="edge35" class="edge">
<title>Planning&#45;&gt;DeleteRelaxation</title>
<path fill="none" stroke="black" d="M802.24,-294.81C883.84,-272.37 1055.79,-214.98 991,-144 958.74,-108.66 657.13,-96.61 502.09,-92.72"/>
<polygon fill="black" stroke="black" points="501.72,-89.21 491.64,-92.47 501.55,-96.21 501.72,-89.21"/>
</g>
<!-- Planning&#45;&gt;H1 -->
<g id="edge48" class="edge">
<title>Planning&#45;&gt;H1</title>
<path fill="none" stroke="black" d="M771.54,-287.93C776.64,-277.82 782.39,-264.57 785,-252 794.89,-204.35 800.62,-179.18 767,-144 698.38,-72.19 386.52,-34.32 274.35,-22.83"/>
<polygon fill="black" stroke="black" points="274.43,-19.32 264.13,-21.8 273.73,-26.29 274.43,-19.32"/>
</g>
<!-- Planning&#45;&gt;Heuristics -->
<g id="edge63" class="edge">
<title>Planning&#45;&gt;Heuristics</title>
<path fill="none" stroke="black" d="M724.31,-293.68C684.64,-281.76 622.01,-262.94 578.41,-249.84"/>
<polygon fill="black" stroke="black" points="579.17,-246.42 568.59,-246.89 577.16,-253.12 579.17,-246.42"/>
</g>
<!-- Planning&#45;&gt;PerfectHeuristic -->
<g id="edge68" class="edge">
<title>Planning&#45;&gt;PerfectHeuristic</title>
<path fill="none" stroke="black" d="M766.1,-287.93C772.91,-254.86 782.23,-181.98 743,-144 709.19,-111.27 367.61,-114.52 321,-108 313.87,-107 306.45,-105.8 299.07,-104.51"/>
<polygon fill="black" stroke="black" points="299.54,-101.04 289.08,-102.69 298.29,-107.92 299.54,-101.04"/>
</g>
<!-- Planning&#45;&gt;Planner -->
<g id="edge73" class="edge">
<title>Planning&#45;&gt;Planner</title>
<path fill="none" stroke="black" d="M710.75,-304.62C649.07,-302.25 543.87,-292.01 464,-252 455.58,-247.78 417.82,-211.3 392.52,-186.37"/>
<polygon fill="black" stroke="black" points="394.69,-183.59 385.11,-179.06 389.77,-188.57 394.69,-183.59"/>
</g>
<!-- SearchAlgorithm&#45;&gt;AStar -->
<g id="edge7" class="edge">
<title>SearchAlgorithm&#45;&gt;AStar</title>
<path fill="none" stroke="black" d="M1430.8,-576.1C1409.65,-542.66 1357.59,-468.18 1293,-432 1223.75,-393.21 1130.65,-382.44 1073.83,-379.67"/>
<polygon fill="black" stroke="black" points="1073.8,-376.16 1063.66,-379.24 1073.5,-383.16 1073.8,-376.16"/>
</g>
<!-- SearchAlgorithm&#45;&gt;BFS -->
<g id="edge18" class="edge">
<title>SearchAlgorithm&#45;&gt;BFS</title>
<path fill="none" stroke="black" d="M1514.03,-586C1592.22,-577.55 1710.38,-561.7 1750,-540 1777.74,-524.81 1800.99,-496.46 1815.37,-475.83"/>
<polygon fill="black" stroke="black" points="1818.28,-477.77 1820.97,-467.52 1812.48,-473.86 1818.28,-477.77"/>
</g>
<!-- SearchAlgorithm&#45;&gt;DFS2 -->
<g id="edge32" class="edge">
<title>SearchAlgorithm&#45;&gt;DFS2</title>
<path fill="none" stroke="black" d="M1452.98,-576.15C1470.69,-551.25 1503.97,-504.47 1524.43,-475.7"/>
<polygon fill="black" stroke="black" points="1527.4,-477.56 1530.34,-467.39 1521.7,-473.51 1527.4,-477.56"/>
</g>
<!-- SearchAlgorithm&#45;&gt;Dijkstra -->
<g id="edge44" class="edge">
<title>SearchAlgorithm&#45;&gt;Dijkstra</title>
<path fill="none" stroke="black" d="M1511.44,-584.92C1572.37,-576.59 1654.44,-561.75 1679,-540 1718.03,-505.44 1730.33,-442.41 1734.21,-406.32"/>
<polygon fill="black" stroke="black" points="1737.73,-406.33 1735.17,-396.05 1730.76,-405.68 1737.73,-406.33"/>
</g>
<!-- SearchAlgorithm&#45;&gt;HeuristicSearch -->
<g id="edge60" class="edge">
<title>SearchAlgorithm&#45;&gt;HeuristicSearch</title>
<path fill="none" stroke="black" d="M1399.74,-578.48C1375.19,-569.06 1343.87,-555.63 1318,-540 1286.68,-521.07 1254.56,-494.04 1233.18,-474.74"/>
<polygon fill="black" stroke="black" points="1235.28,-471.91 1225.54,-467.75 1230.56,-477.08 1235.28,-471.91"/>
</g>
<!-- SearchStep -->
<g id="node21" class="node">
<title>SearchStep</title>
<g id="a_node21"><a xlink:href="SearchStep.html" xlink:title="SearchStep✓">
<ellipse fill="none" stroke="green" cx="1610" cy="-522" rx="59.59" ry="18"/>
<text text-anchor="middle" x="1610" y="-518.3" font-family="Times,serif" font-size="14.00">SearchStep✓</text>
</a>
</g>
</g>
<!-- SearchAlgorithm&#45;&gt;SearchStep -->
<g id="edge83" class="edge">
<title>SearchAlgorithm&#45;&gt;SearchStep</title>
<path fill="none" stroke="black" d="M1477.67,-577.81C1503.9,-566.95 1539.29,-552.29 1566.87,-540.86"/>
<polygon fill="black" stroke="black" points="1568.37,-544.03 1576.27,-536.97 1565.69,-537.56 1568.37,-544.03"/>
</g>
<!-- SearchState&#45;&gt;AStar -->
<g id="edge6" class="edge">
<title>SearchState&#45;&gt;AStar</title>
<path fill="none" stroke="black" d="M1564.69,-647.8C1559.25,-628.72 1548.46,-597.75 1531,-576 1462.21,-490.3 1431.38,-474.42 1330,-432 1244.45,-396.2 1135.79,-384.58 1073.34,-380.81"/>
<polygon fill="black" stroke="black" points="1073.54,-377.32 1063.36,-380.25 1073.15,-384.31 1073.54,-377.32"/>
</g>
<!-- SearchState&#45;&gt;BFS -->
<g id="edge17" class="edge">
<title>SearchState&#45;&gt;BFS</title>
<path fill="none" stroke="black" d="M1630.59,-663.48C1678.03,-659.38 1742.93,-647.08 1788,-612 1828.52,-580.47 1833.53,-515.27 1832.78,-478.25"/>
<polygon fill="black" stroke="black" points="1836.28,-478.03 1832.42,-468.17 1829.28,-478.28 1836.28,-478.03"/>
</g>
<!-- SearchState&#45;&gt;DFS2 -->
<g id="edge31" class="edge">
<title>SearchState&#45;&gt;DFS2</title>
<path fill="none" stroke="black" d="M1570.57,-647.8C1571.66,-629.52 1571.75,-600.01 1564,-576 1558.17,-557.93 1546.32,-558.22 1541,-540 1536.51,-524.64 1540.85,-520 1541,-504 1541.08,-495.68 1541.23,-486.63 1541.38,-478.4"/>
<polygon fill="black" stroke="black" points="1544.89,-478.25 1541.59,-468.18 1537.89,-478.11 1544.89,-478.25"/>
</g>
<!-- SearchState&#45;&gt;Dijkstra -->
<g id="edge43" class="edge">
<title>SearchState&#45;&gt;Dijkstra</title>
<path fill="none" stroke="black" d="M1625.91,-658.85C1689.33,-650.95 1786.68,-635.43 1815,-612 1880.08,-558.16 1924,-501.5 1876,-432 1857.22,-404.81 1822.57,-391.56 1792.44,-385.1"/>
<polygon fill="black" stroke="black" points="1792.91,-381.63 1782.42,-383.16 1791.58,-388.5 1792.91,-381.63"/>
</g>
<!-- SearchState&#45;&gt;HeuristicSearch -->
<g id="edge59" class="edge">
<title>SearchState&#45;&gt;HeuristicSearch</title>
<path fill="none" stroke="black" d="M1512.89,-658.38C1467.4,-651.4 1402.6,-637.7 1351,-612 1305.77,-589.47 1296.29,-578.02 1263,-540 1246.18,-520.8 1231.26,-495.87 1221.21,-477.28"/>
<polygon fill="black" stroke="black" points="1224.19,-475.41 1216.42,-468.2 1218,-478.67 1224.19,-475.41"/>
</g>
<!-- SearchState&#45;&gt;SearchAlgorithm -->
<g id="edge80" class="edge">
<title>SearchState&#45;&gt;SearchAlgorithm</title>
<path fill="none" stroke="black" d="M1541.23,-649.81C1522.99,-639.84 1498.9,-626.67 1478.91,-615.73"/>
<polygon fill="black" stroke="black" points="1480.51,-612.62 1470.05,-610.89 1477.15,-618.76 1480.51,-612.62"/>
</g>
<!-- SearchState&#45;&gt;SearchStep -->
<g id="edge82" class="edge">
<title>SearchState&#45;&gt;SearchStep</title>
<path fill="none" stroke="black" d="M1582.19,-648.37C1589.34,-638.41 1597.59,-625.16 1602,-612 1608.68,-592.05 1610.53,-568.26 1610.79,-550.3"/>
<polygon fill="black" stroke="black" points="1614.29,-550.21 1610.78,-540.21 1607.29,-550.21 1614.29,-550.21"/>
</g>
<!-- SearchStep&#45;&gt;AStar -->
<g id="edge8" class="edge">
<title>SearchStep&#45;&gt;AStar</title>
<path fill="none" stroke="black" d="M1611.8,-503.66C1612.87,-483.24 1611.07,-449.85 1591,-432 1552.72,-397.96 1205.31,-384.32 1073.45,-380.34"/>
<polygon fill="black" stroke="black" points="1073.32,-376.84 1063.22,-380.04 1073.11,-383.84 1073.32,-376.84"/>
</g>
<!-- SearchStep&#45;&gt;BFS -->
<g id="edge19" class="edge">
<title>SearchStep&#45;&gt;BFS</title>
<path fill="none" stroke="black" d="M1649.51,-508.49C1689.68,-495.76 1751.57,-476.16 1791.67,-463.46"/>
<polygon fill="black" stroke="black" points="1792.9,-466.74 1801.38,-460.38 1790.79,-460.07 1792.9,-466.74"/>
</g>
<!-- SearchStep&#45;&gt;DFS2 -->
<g id="edge33" class="edge">
<title>SearchStep&#45;&gt;DFS2</title>
<path fill="none" stroke="black" d="M1593.88,-504.41C1585.12,-495.39 1574.14,-484.09 1564.54,-474.21"/>
<polygon fill="black" stroke="black" points="1567.01,-471.72 1557.53,-466.99 1561.99,-476.6 1567.01,-471.72"/>
</g>
<!-- SearchStep&#45;&gt;Dijkstra -->
<g id="edge45" class="edge">
<title>SearchStep&#45;&gt;Dijkstra</title>
<path fill="none" stroke="black" d="M1624.7,-504.43C1646.89,-479.42 1689.07,-431.89 1714.65,-403.06"/>
<polygon fill="black" stroke="black" points="1717.37,-405.26 1721.39,-395.46 1712.14,-400.62 1717.37,-405.26"/>
</g>
<!-- SearchStep&#45;&gt;HeuristicSearch -->
<g id="edge61" class="edge">
<title>SearchStep&#45;&gt;HeuristicSearch</title>
<path fill="none" stroke="black" d="M1559.49,-512.21C1488.21,-499.79 1357.83,-477.09 1277.47,-463.1"/>
<polygon fill="black" stroke="black" points="1277.89,-459.62 1267.44,-461.35 1276.69,-466.51 1277.89,-459.62"/>
</g>
<!-- temp -->
<g id="node22" class="node">
<title>temp</title>
<g id="a_node22"><a xlink:href="temp.html" xlink:title="temp✓">
<ellipse fill="none" stroke="green" cx="139" cy="-234" rx="38.19" ry="18"/>
<text text-anchor="middle" x="139" y="-230.3" font-family="Times,serif" font-size="14.00">temp✓</text>
</a>
</g>
</g>
<!-- temp&#45;&gt;AbstractionHeuristic -->
<g id="edge13" class="edge">
<title>temp&#45;&gt;AbstractionHeuristic</title>
<path fill="none" stroke="black" d="M175.51,-227.91C255.26,-216.79 446.75,-190.09 557.69,-174.62"/>
<polygon fill="black" stroke="black" points="558.42,-178.05 567.84,-173.2 557.45,-171.12 558.42,-178.05"/>
</g>
<!-- temp&#45;&gt;CriticalPath -->
<g id="edge27" class="edge">
<title>temp&#45;&gt;CriticalPath</title>
<path fill="none" stroke="black" d="M153.75,-217.12C161.91,-208.33 172.22,-197.23 181.37,-187.37"/>
<polygon fill="black" stroke="black" points="184.16,-189.51 188.4,-179.8 179.03,-184.74 184.16,-189.51"/>
</g>
<!-- temp&#45;&gt;H1 -->
<g id="edge53" class="edge">
<title>temp&#45;&gt;H1</title>
<path fill="none" stroke="black" d="M132.11,-216.14C128.3,-205.88 123.94,-192.41 122,-180 114.49,-131.99 109.71,-110.77 139,-72 153.67,-52.57 177.66,-39.27 197.85,-30.85"/>
<polygon fill="black" stroke="black" points="199.38,-34.02 207.41,-27.11 196.82,-27.5 199.38,-34.02"/>
</g>
<!-- temp&#45;&gt;PerfectHeuristic -->
<g id="edge71" class="edge">
<title>temp&#45;&gt;PerfectHeuristic</title>
<path fill="none" stroke="black" d="M132.48,-216.23C126.25,-197.26 119.62,-166.13 133,-144 142.81,-127.77 159.42,-116.27 176.36,-108.23"/>
<polygon fill="black" stroke="black" points="178.01,-111.32 185.76,-104.1 175.2,-104.91 178.01,-111.32"/>
</g>
<!-- WF -->
<g id="node23" class="node">
<title>WF</title>
<g id="a_node23"><a xlink:href="WF.html" xlink:title="WF✓">
<ellipse fill="none" stroke="green" cx="988" cy="-882" rx="33.6" ry="18"/>
<text text-anchor="middle" x="988" y="-878.3" font-family="Times,serif" font-size="14.00">WF✓</text>
</a>
</g>
</g>
<!-- WF&#45;&gt;AStar -->
<g id="edge1" class="edge">
<title>WF&#45;&gt;AStar</title>
<path fill="none" stroke="black" d="M966.93,-867.69C934.49,-845.38 876,-797.09 876,-739 876,-739 876,-739 876,-665 876,-555.07 895.96,-522.06 959,-432 967.85,-419.35 980.49,-408.01 992.2,-399.1"/>
<polygon fill="black" stroke="black" points="994.47,-401.78 1000.49,-393.06 990.35,-396.12 994.47,-401.78"/>
</g>
<!-- WF&#45;&gt;Dijkstra -->
<g id="edge38" class="edge">
<title>WF&#45;&gt;Dijkstra</title>
<path fill="none" stroke="black" d="M1021.82,-880.24C1205.8,-875.67 2078,-848.25 2078,-739 2078,-739 2078,-739 2078,-521 2078,-473.79 2059.26,-458.22 2020,-432 1983.53,-407.64 1864.33,-391.83 1792.47,-384.25"/>
<polygon fill="black" stroke="black" points="1792.53,-380.74 1782.22,-383.19 1791.81,-387.7 1792.53,-380.74"/>
</g>
<!-- WF&#45;&gt;H1 -->
<g id="edge52" class="edge">
<title>WF&#45;&gt;H1</title>
<path fill="none" stroke="black" d="M954.28,-879.79C781.12,-873.13 0,-837.61 0,-739 0,-739 0,-739 0,-161 0,-71.24 127.4,-36.63 194.19,-24.65"/>
<polygon fill="black" stroke="black" points="195.09,-28.05 204.36,-22.92 193.92,-21.15 195.09,-28.05"/>
</g>
<!-- WF&#45;&gt;HeuristicSearch -->
<g id="edge54" class="edge">
<title>WF&#45;&gt;HeuristicSearch</title>
<path fill="none" stroke="black" d="M991.83,-864.07C1005.14,-808.08 1053.59,-625.55 1145,-504 1153.56,-492.62 1164.99,-482.07 1175.77,-473.43"/>
<polygon fill="black" stroke="black" points="1178.05,-476.1 1183.83,-467.21 1173.77,-470.55 1178.05,-476.1"/>
</g>
<!-- WF&#45;&gt;Lists -->
<g id="edge64" class="edge">
<title>WF&#45;&gt;Lists</title>
<path fill="none" stroke="black" d="M1017.78,-873.31C1066.19,-860.8 1162.09,-836.03 1217.27,-821.78"/>
<polygon fill="black" stroke="black" points="1218.27,-825.13 1227.08,-819.24 1216.52,-818.36 1218.27,-825.13"/>
</g>
</g>
</svg>
